<svg width="251" height="234" viewBox="0 0 251 234" fill="none" xmlns="http://www.w3.org/2000/svg">
<g clip-path="url(#clip0_196_474)">
<path d="M0.721558 121.527C1.20494 136.485 4.67266 171.011 31.2725 197.909C78.8188 245.982 175.334 244.431 221.367 195.61C246.327 169.132 249.501 136.122 249.9 121.527H0.721558Z" fill="#EDEBE7" stroke="#BE975B" stroke-width="2" stroke-miterlimit="10"/>
<path d="M125.504 193.389C194.423 193.389 250.292 159.845 250.292 118.467C250.292 77.0893 194.423 43.5459 125.504 43.5459C56.5845 43.5459 0.7146 77.0893 0.7146 118.467C0.7146 159.845 56.5845 193.389 125.504 193.389Z" fill="#EDEBE7" stroke="#BE975B" stroke-width="2" stroke-miterlimit="10"/>
<path d="M232.085 121.136C232.057 122.226 232.008 123.441 231.931 124.755C226.705 157.276 181.05 182.706 125.511 182.706C69.971 182.706 20.9606 155.369 18.6768 121.136H232.085Z" fill="#EDEBE7" stroke="#BE975B" stroke-width="2" stroke-miterlimit="10"/>
<path d="M232.428 118.516C232.428 120.619 232.26 122.701 231.931 124.755C226.705 157.276 181.05 182.706 125.51 182.706C69.9709 182.706 20.9604 155.369 18.6766 121.136C18.6136 120.27 18.5856 119.396 18.5856 118.516C18.5856 83.0604 66.4611 54.3257 125.51 54.3257C184.56 54.3257 232.428 83.0604 232.428 118.516Z" fill="#EDEBE7" stroke="#BE975B" stroke-width="2" stroke-miterlimit="10"/>
<path d="M210.606 119.648C210.585 120.493 210.55 121.422 210.487 122.435C206.396 148.453 169.911 168.804 125.511 168.804C81.1097 168.804 42.0401 146.985 40.2186 119.648H210.606Z" fill="#EDEBE7" stroke="#BE975B" stroke-width="2" stroke-miterlimit="10"/>
<path d="M210.88 117.552C210.88 119.201 210.753 120.829 210.487 122.435C206.396 148.452 169.911 168.804 125.511 168.804C81.1098 168.804 42.0401 146.985 40.2187 119.648C40.1626 118.956 40.1416 118.251 40.1416 117.552C40.1416 89.2504 78.3566 66.3003 125.511 66.3003C172.665 66.3003 210.88 89.2504 210.88 117.552Z" fill="#EDEBE7" stroke="#BE975B" stroke-width="2" stroke-miterlimit="10"/>
<path d="M66.5942 117.622C66.8254 124.685 68.4577 140.984 81.0186 153.678C103.464 176.37 149.028 175.643 170.759 152.595C182.542 140.097 184.041 124.51 184.231 117.622H66.5942Z" fill="#EDEBE7" stroke="#BE975B" stroke-width="2" stroke-miterlimit="10"/>
<path d="M125.504 151.547C158.042 151.547 184.42 135.711 184.42 116.176C184.42 96.6404 158.042 80.804 125.504 80.804C92.965 80.804 66.5873 96.6404 66.5873 116.176C66.5873 135.711 92.965 151.547 125.504 151.547Z" fill="#EDEBE7" stroke="#BE975B" stroke-width="2" stroke-miterlimit="10"/>
<path d="M125.504 133.816C145.634 133.816 161.953 117.542 161.953 97.4663C161.953 77.3908 145.634 61.1165 125.504 61.1165C105.373 61.1165 89.054 77.3908 89.054 97.4663C89.054 117.542 105.373 133.816 125.504 133.816Z" fill="#EDEBE7" stroke="#BE975B" stroke-width="2" stroke-miterlimit="10"/>
<path d="M125.504 49.9803C139.15 49.9803 150.212 38.9482 150.212 25.3395C150.212 11.7308 139.15 0.69873 125.504 0.69873C111.857 0.69873 100.795 11.7308 100.795 25.3395C100.795 38.9482 111.857 49.9803 125.504 49.9803Z" fill="#EDEBE7" stroke="#BE975B" stroke-width="2" stroke-miterlimit="10"/>
<path d="M210.487 122.435C209.864 133.411 206.718 153.748 191.082 170.327C159.592 203.728 93.5725 204.783 61.046 171.899C42.8457 153.504 40.4779 129.876 40.1416 119.648H40.2187C42.0401 146.985 79.5265 168.804 125.511 168.804C171.495 168.804 206.396 148.453 210.487 122.435Z" fill="#EDEBE7" stroke="#BE975B" stroke-width="2" stroke-miterlimit="10"/>
<path d="M231.931 124.755C231.125 138.539 227.167 163.906 207.643 184.614C168.202 226.441 85.5092 227.768 44.7722 186.577C21.9833 163.536 19.006 133.949 18.5927 121.136H18.6767C20.9605 155.369 67.9254 182.706 125.511 182.706C183.096 182.706 226.705 157.276 231.931 124.755Z" fill="#EDEBE7" stroke="#BE975B" stroke-width="2" stroke-miterlimit="10"/>
<path d="M249.627 125.915C248.716 141.941 244.121 171.633 221.29 195.841C175.313 244.612 78.91 246.149 31.4198 198.139C4.8479 171.284 1.39419 136.785 0.903809 121.849H1.0159C3.67799 161.768 58.412 193.626 125.553 193.626C192.693 193.626 243.658 163.913 249.627 125.922V125.915Z" fill="#EDEBE7" stroke="#BE975B" stroke-width="2" stroke-miterlimit="10"/>
</g>
<defs>
<clipPath id="clip0_196_474">
<rect width="251" height="234" fill="white"/>
</clipPath>
</defs>
</svg>
