<svg width="247" height="247" viewBox="0 0 247 247" fill="none" xmlns="http://www.w3.org/2000/svg">
<g clip-path="url(#clip0_196_380)">
<path d="M105.551 78.2012L104.879 79.6736L200.343 120.266L201.015 118.793L105.551 78.2012Z" fill="#BE975B"/>
<path d="M159.512 230.845C159.412 230.845 159.303 230.829 159.203 230.789L60.4931 193.114C60.2347 193.017 60.0429 192.8 59.9846 192.535L54.7573 168.979L5.65241 149.888C5.36895 149.775 5.1772 149.526 5.13552 149.236L-6.74604e-05 108.464C-0.0167414 108.303 0.00826953 108.142 0.0833024 108.005L44.7112 23.5076C44.9113 23.1214 45.3948 22.9605 45.795 23.1375L90.9732 42.7836L114.075 0.426242C114.283 0.0481228 114.767 -0.112779 115.167 0.072258L203.381 40C203.514 40.0644 203.631 40.1528 203.714 40.2735L227.825 74.449C228.008 74.7065 228.017 75.0363 227.858 75.3018L201.63 119.518L213.752 140.62C213.894 140.869 213.894 141.167 213.752 141.416L160.237 230.443C160.087 230.701 159.803 230.845 159.512 230.845ZM61.5186 191.787L159.145 229.043L212.068 141.006L199.946 119.912C199.804 119.662 199.804 119.365 199.946 119.123L226.149 74.9478L202.464 41.3676L115.184 1.85827L92.082 44.1995C91.8736 44.5776 91.4067 44.7305 90.9982 44.5615L45.8284 24.9235L1.69234 108.512L6.73622 148.576L55.7911 167.651C56.0495 167.748 56.2329 167.965 56.2913 168.231L61.5186 191.787Z" fill="#BE975B"/>
<path d="M131.525 31.5221L130.827 32.9834L226.799 75.6585L227.497 74.1972L131.525 31.5221Z" fill="#BE975B"/>
<path d="M179.754 127.732L168.791 106.646C168.666 106.404 168.674 106.123 168.807 105.889L194.869 61.022L187.474 49.6462L188.883 48.7935L196.536 60.5795C196.695 60.8289 196.703 61.1427 196.553 61.4001L170.466 106.308L181.23 127.016L179.737 127.74L179.754 127.732Z" fill="#BE975B"/>
<path d="M105.981 78.6573L104.423 79.2302L112.4 99.4304L113.958 98.8575L105.981 78.6573Z" fill="#BE975B"/>
<path d="M61.5353 192.752L60.068 191.988L112.458 98.7453C112.666 98.3752 113.125 98.2224 113.525 98.3913L213.36 140.274L212.693 141.746L113.558 100.153L61.5353 192.744V192.752Z" fill="#BE975B"/>
<path d="M130.007 145.005L128.548 144.224L146.289 113.371L136.952 93.0817C136.843 92.8484 136.86 92.5909 136.985 92.3657L162.896 46.7823L156.385 35.7042L157.836 34.9077L164.58 46.372C164.722 46.6133 164.722 46.911 164.58 47.1523L138.644 92.784L147.981 113.074C148.09 113.307 148.073 113.572 147.948 113.79L130.007 144.989V145.005Z" fill="#BE975B"/>
<path d="M125.538 247C125.438 247 125.338 246.984 125.238 246.944L31.347 212.028C31.0719 211.924 30.8718 211.682 30.8218 211.401L23.6687 166.501C23.6437 166.332 23.6687 166.155 23.752 166.002L28.2707 157.724L29.7463 158.472L25.3611 166.517L32.4058 210.693L125.18 245.19L138.911 222.044L140.362 222.841L126.28 246.582C126.13 246.839 125.847 246.984 125.555 246.984L125.538 247Z" fill="#BE975B"/>
<path d="M36.5287 160.923L26.0109 180.1L27.4846 180.853L38.0025 161.676L36.5287 160.923Z" fill="#BE975B"/>
<path d="M194.952 223.436C194.852 223.436 194.744 223.42 194.644 223.38L169.524 213.613L170.15 212.117L194.602 221.626L245.191 138.866L220.538 100.885L213.602 97.8685L214.286 96.4043L221.447 99.5177C221.597 99.5821 221.722 99.6867 221.814 99.8235L246.867 138.424C247.033 138.681 247.033 139.003 246.875 139.26L195.669 223.034C195.519 223.283 195.236 223.428 194.952 223.428V223.436Z" fill="#BE975B"/>
<path d="M104.466 78.5387L30.9205 210.898L32.39 211.658L105.935 79.299L104.466 78.5387Z" fill="#BE975B"/>
<path d="M76.7438 198.362L62.8572 222.788L64.319 223.562L78.2057 199.136L76.7438 198.362Z" fill="#BE975B"/>
<path d="M125.732 20.3785L125.03 21.8381L156.773 36.0438L157.475 34.5841L125.732 20.3785Z" fill="#BE975B"/>
<path d="M105.946 79.3085L104.479 78.5442L130.224 32.2207L114.067 1.16668L115.559 0.442627L131.908 31.8828C132.033 32.1161 132.025 32.3896 131.899 32.6229L105.946 79.3166V79.3085Z" fill="#BE975B"/>
<path d="M105.213 79.7348C105.096 79.7348 104.988 79.7106 104.879 79.6623L54.749 58.3509L55.4243 56.8787L103.729 77.4097L84.5121 28.7611L86.0711 28.1899L105.997 78.6406C106.113 78.9463 106.038 79.2842 105.788 79.5095C105.63 79.6543 105.421 79.7348 105.213 79.7348Z" fill="#BE975B"/>
<path d="M100.302 67.3132C100.186 67.3132 100.077 67.289 99.9605 67.2408L51.3308 46.396L52.0061 44.9237L99.9271 65.4628L124.63 20.7241L126.105 21.4804L101.036 66.8787C100.886 67.1523 100.602 67.3051 100.302 67.3051V67.3132Z" fill="#BE975B"/>
<path d="M80.452 39.1392L78.9763 38.391L84.5454 28.1014C84.7539 27.7233 85.2291 27.5624 85.6292 27.7393L97.276 32.856L96.584 34.3202L85.6542 29.5254L80.452 39.1392Z" fill="#BE975B"/>
<path d="M47.7136 34.0583L32.1044 63.4934L33.5887 64.2264L49.198 34.7913L47.7136 34.0583Z" fill="#BE975B"/>
<path d="M6.71128 149.518L5.22729 148.778L54.1904 57.5304L44.6446 24.087L46.2536 23.6606L55.8828 57.4097C55.9412 57.6028 55.9162 57.812 55.8161 57.997L6.71128 149.518Z" fill="#BE975B"/>
<path d="M31.1294 52.3644L29.4994 52.7034L32.03 64.0362L33.66 63.6973L31.1294 52.3644Z" fill="#BE975B"/>
<path d="M95.6919 55.6317C95.5752 55.6317 95.4585 55.6076 95.3501 55.5593L48.1294 35.165L48.813 33.6928L95.3251 53.7733L119.202 10.2575C119.411 9.87933 119.886 9.72648 120.294 9.90347L151.141 23.7893L150.433 25.2454L120.311 11.6814L96.4422 55.1892C96.2922 55.4627 96.0087 55.6156 95.7086 55.6156L95.6919 55.6317Z" fill="#BE975B"/>
<path d="M128.957 145.35L95.05 131.569C94.8249 131.481 94.6498 131.296 94.5748 131.07L87.6301 109.912L38.0583 89.4532C37.8082 89.3486 37.6248 89.1394 37.5748 88.882L34.7152 76.0662L36.3493 75.7283L39.1171 88.1338L88.6472 108.576C88.8723 108.665 89.039 108.85 89.1141 109.075L96.0588 130.234L129.607 143.87L128.957 145.35Z" fill="#BE975B"/>
<path d="M111.374 175.954L77.6091 162.655C77.3673 162.559 77.1839 162.358 77.1172 162.116L71.0478 139.735L21.7095 119.968C21.4428 119.864 21.251 119.63 21.2093 119.357L18.8833 105.72L20.5257 105.455L22.7767 118.649L72.065 138.391C72.3067 138.488 72.4818 138.689 72.5485 138.93L78.6178 161.312L111.999 174.457L111.366 175.946L111.374 175.954Z" fill="#BE975B"/>
<path d="M110.962 174.824L93.7076 204.826L95.1656 205.607L112.42 175.605L110.962 174.824Z" fill="#BE975B"/>
<path d="M186.825 184.347L186.186 185.833L211.389 195.927L212.028 194.441L186.825 184.347Z" fill="#BE975B"/>
<path d="M201.023 118.791L200.35 120.264L245.836 139.604L246.508 138.132L201.023 118.791Z" fill="#BE975B"/>
<path d="M205.744 110.814L205.067 112.284L236.984 125.965L237.66 124.494L205.744 110.814Z" fill="#BE975B"/>
<path d="M144.397 188.955L111.374 175.946C111.157 175.857 110.982 175.688 110.899 175.471C110.824 175.254 110.84 175.013 110.957 174.811L128.548 144.216C128.756 143.854 129.207 143.709 129.599 143.862L162.746 157.338L162.096 158.818L129.64 145.624L112.866 174.795L145.022 187.458L144.388 188.947L144.397 188.955Z" fill="#BE975B"/>
<path d="M16.7729 92.4045L1.70276 120.786L3.1867 121.52L18.2569 93.1382L16.7729 92.4045Z" fill="#BE975B"/>
<path d="M16.2735 80.5618L14.6283 80.8235L16.6906 92.8971L18.3358 92.6355L16.2735 80.5618Z" fill="#BE975B"/>
<path d="M18.8749 105.712L16.6822 92.8966C16.6572 92.7276 16.6822 92.5507 16.7656 92.3978L32.1057 63.4999C32.2641 63.1942 32.6059 63.0252 32.956 63.0654C33.3062 63.1137 33.5896 63.3631 33.6647 63.693L36.3492 75.7284L34.7151 76.0663L32.5225 66.2352L18.3746 92.8966L20.5172 105.455L18.8749 105.72V105.712Z" fill="#BE975B"/>
<path d="M162.741 157.33L162.094 158.813L194.51 171.988L195.157 170.505L162.741 157.33Z" fill="#BE975B"/>
<path d="M179.771 126.968L143.983 187.81L145.433 188.604L181.221 127.762L179.771 126.968Z" fill="#BE975B"/>
<path d="M128.048 218.158L126.597 217.362L143.98 187.812C144.188 187.458 144.63 187.314 145.022 187.466L177.319 200.186L176.686 201.674L145.064 189.22L128.039 218.158H128.048Z" fill="#BE975B"/>
<path d="M188.547 48.4873L187.846 49.947L218.273 63.5637L218.974 62.1041L188.547 48.4873Z" fill="#BE975B"/>
<path d="M188.182 50.0163C188.066 50.0163 187.941 49.9921 187.832 49.9439L156.76 36.042C156.602 35.9696 156.469 35.8569 156.385 35.7121L150.049 24.9317L151.5 24.1353L157.702 34.6904L185.982 47.3453L180.279 38.5601L181.688 37.7073L188.883 48.7854C189.083 49.0911 189.05 49.4773 188.799 49.7427C188.641 49.9197 188.408 50.0163 188.174 50.0163H188.182Z" fill="#BE975B"/>
<path d="M180.638 38.8578L150.424 25.2616C150.266 25.1892 150.141 25.0766 150.049 24.9318L144.08 14.7869L145.53 13.9905L151.366 23.9181L181.338 37.4097L180.629 38.8659L180.638 38.8578Z" fill="#BE975B"/>
<path d="M210.234 52.1805L180.638 38.8578C180.496 38.7935 180.371 38.6889 180.287 38.5521L173.509 28.1096L174.918 27.2568L181.571 37.4982L210.951 50.7243L210.242 52.1805H210.234Z" fill="#BE975B"/>
<path d="M50.9131 45.3009L3.41626 134.369L4.89887 135.105L52.3957 46.0372L50.9131 45.3009Z" fill="#BE975B"/>
<path d="M45.3319 164.365L28.384 195.058L29.8556 195.815L46.8035 165.121L45.3319 164.365Z" fill="#BE975B"/>
<path d="M108.141 210.309L94.1643 234.392L95.6191 235.179L109.596 211.095L108.141 210.309Z" fill="#BE975B"/>
<path d="M203.819 156.1L203.163 157.579L228.445 168.01L229.1 166.531L203.819 156.1Z" fill="#BE975B"/>
<path d="M210.165 103.39L209.484 104.859L228.652 113.137L229.334 111.669L210.165 103.39Z" fill="#BE975B"/>
</g>
<defs>
<clipPath id="clip0_196_380">
<rect width="247" height="247" fill="white"/>
</clipPath>
</defs>
</svg>
