<svg width="264" height="244" viewBox="0 0 264 244" fill="none" xmlns="http://www.w3.org/2000/svg">
<g clip-path="url(#clip0_196_1055)">
<path d="M263.208 114.744L132 50.2511V1.28735L263.208 65.7802V114.744Z" stroke="#BE975B" stroke-width="2" stroke-miterlimit="10"/>
<path d="M130.313 242.728L0.791748 179.245V130.281L130.313 193.765V242.728Z" stroke="#BE975B" stroke-width="2" stroke-miterlimit="10"/>
<path d="M0.791748 129.939L132 65.4464V16.4827L0.791748 80.9755V129.939Z" stroke="#BE975B" stroke-width="2" stroke-miterlimit="10"/>
<path d="M130.313 226.516L263.208 159.662V110.699L130.313 177.552V226.516Z" fill="#EDEBE7" stroke="#BE975B" stroke-width="2" stroke-miterlimit="10"/>
<path d="M33.762 145.81L162.951 81.7704L132 65.4465" stroke="#BE975B" stroke-width="2" stroke-miterlimit="10"/>
<path d="M163.403 65.5579V81.7705" stroke="#BE975B" stroke-width="2" stroke-miterlimit="10"/>
<path d="M132 16.4827L162.278 32.0118V48.2244L131.778 32.9178L97.6836 48.0019V66.9087L132 50.251" stroke="#BE975B" stroke-width="2" stroke-miterlimit="10"/>
<path d="M131.659 0.723145L97.9053 16.0298V32.6874" stroke="#BE975B" stroke-width="2" stroke-miterlimit="10"/>
<path d="M227.546 97.9751L99.2515 161.006L130.314 177.552" stroke="#BE975B" stroke-width="2" stroke-miterlimit="10"/>
<path d="M98.3013 177.894V160.894" stroke="#BE975B" stroke-width="2" stroke-miterlimit="10"/>
<path d="M148.651 89.4236L197.101 113.059" stroke="#BE975B" stroke-width="2" stroke-miterlimit="10"/>
<path d="M64.8796 129.939L113.33 153.583" stroke="#BE975B" stroke-width="2" stroke-miterlimit="10"/>
<path d="M130.313 193.765L162.5 178.116V194.774L131.549 209.182L97.9053 193.653V210.987L129.759 225.165" stroke="#BE975B" stroke-width="2" stroke-miterlimit="10"/>
<path d="M162.5 211.209V226.516L130.313 242.728" stroke="#BE975B" stroke-width="2" stroke-miterlimit="10"/>
</g>
<defs>
<clipPath id="clip0_196_1055">
<rect width="264" height="244" fill="white"/>
</clipPath>
</defs>
</svg>
