<svg width="251" height="233" viewBox="0 0 251 233" fill="none" xmlns="http://www.w3.org/2000/svg">
<g clip-path="url(#clip0_196_544)">
<path d="M140.827 219.699C201.305 219.699 250.332 170.667 250.332 110.183C250.332 49.6995 201.305 0.667725 140.827 0.667725C80.3482 0.667725 31.3208 49.6995 31.3208 110.183C31.3208 170.667 80.3482 219.699 140.827 219.699Z" fill="#EDEBE7" stroke="#BE975B" stroke-width="2" stroke-miterlimit="10"/>
<path d="M128.682 212.694C179.13 212.694 220.026 171.794 220.026 121.341C220.026 70.8882 179.13 29.988 128.682 29.988C78.2331 29.988 37.3365 70.8882 37.3365 121.341C37.3365 171.794 78.2331 212.694 128.682 212.694Z" fill="#EDEBE7" stroke="#BE975B" stroke-width="2" stroke-miterlimit="10"/>
<path d="M117.838 208.835C159.942 208.835 194.074 174.7 194.074 132.593C194.074 90.4851 159.942 56.3503 117.838 56.3503C75.7348 56.3503 41.603 90.4851 41.603 132.593C41.603 174.7 75.7348 208.835 117.838 208.835Z" fill="#EDEBE7" stroke="#BE975B" stroke-width="2" stroke-miterlimit="10"/>
<path d="M140.88 154.434C165.372 154.434 185.227 134.577 185.227 110.083C185.227 85.5886 165.372 65.7319 140.88 65.7319C116.388 65.7319 96.533 85.5886 96.533 110.083C96.533 134.577 116.388 154.434 140.88 154.434Z" fill="#EDEBE7" stroke="#BE975B" stroke-width="2" stroke-miterlimit="10"/>
<path d="M131.459 150.475C148.68 150.475 162.64 136.513 162.64 119.291C162.64 102.069 148.68 88.1079 131.459 88.1079C114.239 88.1079 100.279 102.069 100.279 119.291C100.279 136.513 114.239 150.475 131.459 150.475Z" fill="#EDEBE7" stroke="#BE975B" stroke-width="2" stroke-miterlimit="10"/>
<path d="M140.88 126.596C149.999 126.596 157.392 119.203 157.392 110.083C157.392 100.963 149.999 93.5698 140.88 93.5698C131.761 93.5698 124.368 100.963 124.368 110.083C124.368 119.203 131.761 126.596 140.88 126.596Z" fill="#EDEBE7" stroke="#BE975B" stroke-width="2" stroke-miterlimit="10"/>
<path d="M137.375 125.114C143.784 125.114 148.979 119.918 148.979 113.509C148.979 107.099 143.784 101.903 137.375 101.903C130.966 101.903 125.771 107.099 125.771 113.509C125.771 119.918 130.966 125.114 137.375 125.114Z" fill="#EDEBE7" stroke="#BE975B" stroke-width="2" stroke-miterlimit="10"/>
<path d="M24.8777 232.332C38.2485 232.332 49.0877 221.492 49.0877 208.12C49.0877 194.748 38.2485 183.908 24.8777 183.908C11.5069 183.908 0.667725 194.748 0.667725 208.12C0.667725 221.492 11.5069 232.332 24.8777 232.332Z" fill="#EDEBE7" stroke="#BE975B" stroke-width="2" stroke-miterlimit="10"/>
</g>
<defs>
<clipPath id="clip0_196_544">
<rect width="251" height="233" fill="white"/>
</clipPath>
</defs>
</svg>
