<svg width="181" height="104" viewBox="0 0 181 104" fill="none" xmlns="http://www.w3.org/2000/svg">
<g clip-path="url(#clip0_9_103)">
<path d="M150.343 88.0939C147.248 88.0939 144.731 90.6236 144.731 93.7355C144.731 96.8473 147.248 99.3771 150.343 99.3771C153.439 99.3771 155.956 96.8473 155.956 93.7355C155.956 90.6236 153.439 88.0939 150.343 88.0939ZM150.343 98.6831C147.626 98.6831 145.421 96.4667 145.421 93.7355C145.421 91.0042 147.626 88.7879 150.343 88.7879C153.06 88.7879 155.265 91.0042 155.265 93.7355C155.265 96.4667 153.06 98.6831 150.343 98.6831Z" fill="white"/>
<path d="M152.905 96.0638C152.816 95.9854 152.726 95.8847 152.648 95.7839C152.571 95.6832 152.515 95.5824 152.459 95.4817L151.724 94.0041C151.98 93.9034 152.192 93.7579 152.37 93.59C152.604 93.3549 152.771 93.0974 152.86 92.8064C152.949 92.5154 152.971 92.2243 152.927 91.9221C152.882 91.6199 152.76 91.3289 152.571 91.0826C152.381 90.8251 152.114 90.6236 151.791 90.4669C151.468 90.3102 151.078 90.2319 150.622 90.2319H148.172V90.6908H148.294C148.395 90.6908 148.473 90.7356 148.539 90.8139C148.606 90.8811 148.64 90.9595 148.64 91.0602V93.6795H147.949V94.2168H148.64V95.963C148.64 96.0638 148.606 96.1421 148.539 96.2093C148.473 96.2764 148.395 96.3212 148.294 96.3212H148.15L148.161 96.7913H150.221V96.3324H150.087C149.987 96.3324 149.909 96.2876 149.853 96.2205C149.787 96.1533 149.753 96.0638 149.753 95.963V94.2168H150.566L151.301 95.6944C151.346 95.7839 151.379 95.8735 151.39 95.9742C151.401 96.0638 151.401 96.1421 151.39 96.2093C151.39 96.2652 151.357 96.31 151.334 96.3324C151.334 96.3324 151.301 96.3436 151.29 96.3436V96.8025H153.406V96.3436C153.328 96.3436 153.239 96.3212 153.161 96.2764C153.061 96.2317 152.971 96.1645 152.882 96.0749L152.905 96.0638ZM149.798 90.758H150.577C150.867 90.758 151.101 90.8251 151.29 90.9595C151.49 91.105 151.624 91.2841 151.724 91.4967C151.824 91.7094 151.869 91.9557 151.869 92.2131C151.869 92.4706 151.824 92.7169 151.724 92.9295C151.624 93.1422 151.479 93.3213 151.29 93.4668C151.101 93.6012 150.867 93.6683 150.577 93.6683H149.798V90.758Z" fill="white"/>
<path d="M37.9617 100.34C37.7723 100.787 37.5385 101.213 37.2824 101.616C37.0374 102.008 36.759 102.355 36.4695 102.646C36.2133 102.903 35.9684 103.015 35.7122 103.015H29.8214V92.6833H33.5853C34.1866 92.6833 34.6878 92.8847 35.1109 93.2989C35.5452 93.7354 35.8681 94.2616 36.0686 94.8772L36.6031 96.5227V88.1162L36.0797 89.7169C35.8793 90.3102 35.5563 90.8363 35.122 91.2729C34.6989 91.687 34.1978 91.8885 33.5965 91.8885H29.8326V85.1835H35.1777C35.4561 85.1835 35.7122 85.3066 35.9684 85.5529C36.2579 85.8327 36.5251 86.1797 36.7813 86.5827C37.0374 86.9857 37.2601 87.4222 37.4494 87.87C37.6499 88.3289 37.7946 88.7095 37.8837 89.0117L38.5296 91.1049L38.1621 84.4H25.3115L25.2892 84.9484L25.7458 84.982C26.1578 85.0156 26.503 85.1835 26.7814 85.4746C27.0598 85.7768 27.1934 86.1238 27.1934 86.5379V91.8773H25.0331V92.6609H27.1934V101.638C27.1934 102.052 27.0598 102.399 26.7814 102.702C26.503 103.004 26.1578 103.16 25.7569 103.194L25.3003 103.228L25.3226 103.776H38.6855L39.053 96.9032L38.3959 99.1755C38.3069 99.5002 38.1621 99.8808 37.9617 100.317V100.34Z" fill="white"/>
<path d="M55.9681 100.34C55.7677 100.787 55.545 101.213 55.2889 101.616C55.0439 102.008 54.7655 102.355 54.4759 102.646C54.2198 102.903 53.9748 103.015 53.7187 103.015H47.8279V86.5603C47.8279 86.1462 47.9616 85.788 48.2288 85.497C48.4961 85.1947 48.8301 85.038 49.2422 85.0044L49.6987 84.9709L49.6765 84.4224H43.3068L43.2845 84.9709L43.7411 85.0044C44.1531 85.038 44.4983 85.2059 44.7767 85.497C45.0551 85.7992 45.1888 86.1462 45.1888 86.5603V101.649C45.1888 102.064 45.0551 102.411 44.7767 102.713C44.4983 103.015 44.1531 103.172 43.7522 103.205L43.2957 103.239L43.318 103.787H56.6808L57.0483 96.9145L56.3913 99.1868C56.3022 99.5114 56.1574 99.892 55.957 100.329L55.9681 100.34Z" fill="white"/>
<path d="M75.1327 87.4782C74.3086 86.5715 73.2841 85.8327 72.0592 85.2731C70.8343 84.7134 69.4089 84.4335 67.7942 84.4335H60.879L60.8567 84.982L61.3133 85.0156C61.7253 85.0492 62.0705 85.2171 62.3489 85.5081C62.6273 85.8103 62.7609 86.1573 62.7609 86.5715V101.661C62.7609 102.075 62.6273 102.422 62.3489 102.724C62.0705 103.026 61.7253 103.183 61.3244 103.216L60.8678 103.25L60.8901 103.799H67.772C69.3755 103.799 70.812 103.519 72.0258 102.97C73.2396 102.422 74.2752 101.683 75.0993 100.776C75.9122 99.8695 76.5358 98.8285 76.9367 97.6644C77.3375 96.5115 77.5491 95.3249 77.5603 94.1272C77.5603 92.9295 77.371 91.7318 76.9701 90.5788C76.5692 89.4259 75.9456 88.3737 75.1327 87.467V87.4782ZM74.1639 97.3958C73.8298 98.4592 73.3176 99.4218 72.6606 100.25C71.9924 101.078 71.1461 101.761 70.1439 102.265C69.1417 102.769 67.9501 103.026 66.625 103.026H65.4001V85.2171H66.625C67.9613 85.2171 69.1417 85.4745 70.1439 85.9783C71.1461 86.482 71.9924 87.1536 72.6606 87.9931C73.3287 88.8214 73.8298 89.7841 74.1639 90.8475C74.4979 91.9109 74.665 93.019 74.665 94.1272C74.665 95.2354 74.4979 96.3436 74.1639 97.4069V97.3958Z" fill="white"/>
<path d="M97.315 87.3439C96.5467 86.4148 95.5667 85.6537 94.4198 85.0828C93.2616 84.5119 91.9031 84.2209 90.3664 84.2209C88.8296 84.2209 87.4711 84.5119 86.313 85.0828C85.1548 85.6537 84.186 86.4148 83.4177 87.3439C82.6493 88.273 82.0702 89.3364 81.6805 90.5117C81.3019 91.6758 81.1014 92.8959 81.1014 94.1272C81.1014 95.3585 81.2907 96.5675 81.6805 97.7428C82.0591 98.9181 82.6493 99.9815 83.4177 100.911C84.186 101.84 85.166 102.601 86.313 103.172C87.4711 103.743 88.8296 104.034 90.3664 104.034C91.9031 104.034 93.2616 103.743 94.4198 103.172C95.5667 102.601 96.5467 101.84 97.315 100.911C98.0834 99.9815 98.6625 98.9181 99.0522 97.7428C99.4308 96.5787 99.6313 95.3585 99.6313 94.1272C99.6313 92.8959 99.442 91.687 99.0522 90.5117C98.6625 89.3364 98.0834 88.273 97.315 87.3439ZM96.4799 97.5189C96.2126 98.6159 95.7895 99.6009 95.2438 100.452C94.6982 101.302 94.0077 101.996 93.1948 102.511C92.3931 103.026 91.4354 103.284 90.3552 103.284C89.2751 103.284 88.3285 103.026 87.5156 102.511C86.7027 101.996 86.0123 101.302 85.4666 100.452C84.921 99.6009 84.509 98.6159 84.2306 97.5189C83.9633 96.4219 83.8186 95.2802 83.8186 94.1161C83.8186 92.9519 83.9522 91.8102 84.2306 90.7132C84.4978 89.6162 84.9099 88.6312 85.4666 87.7805C86.0123 86.9297 86.7027 86.2357 87.5156 85.7208C88.3285 85.2059 89.2751 84.9485 90.3552 84.9485C91.4354 84.9485 92.3819 85.2059 93.1948 85.7208C94.0077 86.2357 94.6982 86.9297 95.2438 87.7805C95.7895 88.6312 96.2015 89.6162 96.4799 90.7132C96.7471 91.8102 96.8919 92.9631 96.8919 94.1161C96.8919 95.269 96.7583 96.4219 96.4799 97.5189Z" fill="white"/>
<path d="M117.471 102.332C117.17 102.052 116.892 101.739 116.647 101.414C116.402 101.078 116.19 100.743 116.023 100.407L113.54 95.4257C114.453 95.1235 115.232 94.6645 115.834 94.0713C116.502 93.4109 116.981 92.6609 117.237 91.8326C117.493 91.0042 117.56 90.1535 117.437 89.2916C117.304 88.4297 116.958 87.6237 116.424 86.8962C115.878 86.1798 115.132 85.5753 114.197 85.1276C113.261 84.6798 112.114 84.4448 110.789 84.4448H103.239L103.217 84.9932L103.64 85.0268C104.052 85.0604 104.397 85.2283 104.676 85.5194C104.954 85.8216 105.088 86.1686 105.088 86.5827V95.0787H102.961V95.8623H105.088V101.683C105.088 102.097 104.954 102.444 104.676 102.746C104.397 103.049 104.052 103.205 103.64 103.239L103.206 103.272L103.228 103.821H109.564L109.587 103.272L109.13 103.239C108.718 103.205 108.384 103.049 108.117 102.746C107.849 102.444 107.716 102.097 107.716 101.683V95.8623H110.912L113.284 100.664C113.44 100.989 113.551 101.314 113.607 101.638C113.662 101.952 113.662 102.243 113.607 102.5C113.562 102.746 113.473 102.937 113.339 103.082C113.228 103.205 113.072 103.272 112.86 103.272V103.821H119.375V103.272C119.052 103.272 118.729 103.194 118.417 103.026C118.083 102.858 117.771 102.623 117.471 102.355V102.332ZM113.016 94.3511C112.371 94.8324 111.546 95.0675 110.567 95.0675H107.727V85.2059H110.567C111.535 85.2059 112.359 85.4522 113.016 85.9223C113.673 86.4036 114.174 87.0193 114.497 87.7357C114.82 88.4633 114.987 89.2692 114.987 90.1311C114.987 90.993 114.82 91.799 114.497 92.5266C114.174 93.243 113.673 93.8586 113.016 94.3399V94.3511Z" fill="white"/>
<path d="M137.615 102.937C137.437 103.071 137.214 103.172 136.98 103.261L135.522 103.787H145.611L143.595 103.25C143.239 103.149 142.905 103.049 142.604 102.925C142.314 102.813 142.047 102.646 141.802 102.444C141.557 102.243 141.312 101.974 141.09 101.649C140.867 101.325 140.633 100.911 140.41 100.407L133.729 83.8851L133.662 83.7172H132.972C131.713 87.4782 130.455 91.2393 129.197 95.0003H127.014V95.8063H128.929C128.562 96.9144 128.183 98.0226 127.816 99.1308C127.56 99.8472 127.27 100.452 126.969 100.911C126.669 101.37 126.346 101.75 126.001 102.052C125.655 102.343 125.277 102.578 124.876 102.758C124.453 102.937 123.985 103.105 123.484 103.261L121.702 103.799H131.39L130.021 103.272C129.642 103.127 129.297 102.948 129.007 102.746C128.74 102.556 128.54 102.332 128.406 102.041C128.272 101.75 128.217 101.392 128.228 100.978C128.25 100.541 128.361 99.9815 128.562 99.3323C128.952 98.1681 129.341 96.9928 129.731 95.8287H135.8L137.76 100.631C137.938 101.067 138.05 101.448 138.072 101.761C138.094 102.052 138.072 102.299 137.994 102.489C137.916 102.679 137.805 102.825 137.637 102.937H137.615ZM132.448 87.6125L135.366 94.7989L135.444 95.0115H129.976C130.8 92.5489 131.624 90.0751 132.448 87.6125Z" fill="white"/>
<path d="M1.0913 0.402968C0.723822 0.324612 0.356343 0.235063 0 0.156708V76.9674C0.679279 76.6428 1.36969 76.307 2.08238 75.9712V46.3192C1.74831 46.3976 1.42537 46.4871 1.0913 46.5655V0.402968Z" fill="white"/>
<path d="M10.9353 2.49617C10.5344 2.41781 10.1335 2.32826 9.7326 2.24991V72.5459C10.501 72.2213 11.2805 71.8967 12.0822 71.5721V43.8119C11.6925 43.8902 11.3139 43.9686 10.9353 44.0469V2.49617Z" fill="white"/>
<path d="M20.7793 4.33193C20.3338 4.25357 19.8995 4.17522 19.4541 4.09686V68.6953C20.3116 68.3819 21.1801 68.0684 22.0599 67.755V41.9649C21.6256 42.0321 21.2024 42.1104 20.7793 42.1776V4.33193Z" fill="white"/>
<path d="M30.6232 5.92144C30.1332 5.85428 29.6544 5.77593 29.1644 5.69757V65.4156C30.0664 65.1357 30.9795 64.8559 31.9038 64.5761V40.521C31.4695 40.5769 31.0464 40.6329 30.6232 40.6889V5.92144Z" fill="white"/>
<path d="M40.4784 7.25346C39.9438 7.18629 39.4093 7.11913 38.8748 7.05197V62.6507C39.8325 62.4045 40.7902 62.1582 41.759 61.9231V39.4799C41.3247 39.5135 40.9015 39.5583 40.4784 39.5918V7.25346Z" fill="white"/>
<path d="M50.3446 8.35045C49.7544 8.29449 49.1642 8.23852 48.5851 8.17136V60.3896C49.5874 60.177 50.6118 59.9867 51.6252 59.7852V38.8307C51.1909 38.8531 50.7677 38.8755 50.3446 38.8979V8.35045Z" fill="white"/>
<path d="M60.2108 9.21235C59.5649 9.16758 58.9191 9.11161 58.2732 9.06683V58.6322C59.3422 58.4643 60.4113 58.2964 61.4914 58.1509V38.5956C61.0571 38.5956 60.634 38.5956 60.2108 38.5956V9.21235Z" fill="white"/>
<path d="M70.0993 9.8168C69.3866 9.78322 68.674 9.74964 67.9724 9.70486V57.3338C69.0971 57.2106 70.2441 57.0987 71.3911 56.9979V38.7747C70.9568 38.7523 70.5336 38.7411 70.1105 38.7299V9.8168H70.0993Z" fill="white"/>
<path d="M79.9879 10.1862C79.2084 10.1638 78.4289 10.1414 77.6494 10.119V56.5054C78.0726 56.4831 78.5069 56.4607 78.93 56.4383C79.7095 56.3935 80.489 56.3487 81.2685 56.3151V39.3792C80.8342 39.3456 80.4111 39.312 79.9879 39.2784V10.1862Z" fill="white"/>
<path d="M89.8875 10.3205C89.0301 10.3205 88.1615 10.3205 87.3152 10.3205V56.1472C87.7383 56.1472 88.1726 56.1472 88.5958 56.136H88.696C89.5535 56.136 90.3107 56.1472 91.1681 56.136V40.4426C90.7339 40.3866 90.3107 40.3418 89.8875 40.2859V10.3205Z" fill="white"/>
<path d="M99.7983 10.1974C98.8518 10.2198 97.9164 10.2422 96.9587 10.2534V56.2256C97.3819 56.2368 97.8162 56.2592 98.2393 56.2704V56.2928C99.1859 56.3263 100.132 56.3823 101.079 56.4271V41.9649C100.645 41.8866 100.222 41.8194 99.7983 41.741V10.1974Z" fill="white"/>
<path d="M109.72 9.8392C108.685 9.88398 107.649 9.93995 106.602 9.97353V56.7517C107.037 56.7853 107.46 56.83 107.883 56.8636C108.93 56.9756 109.965 57.0763 111.001 57.1771V43.9574C110.567 43.8566 110.143 43.7671 109.72 43.6775V9.8392Z" fill="white"/>
<path d="M119.664 9.23474C118.529 9.3131 117.382 9.39145 116.235 9.46981V57.7703C116.669 57.8263 117.092 57.8934 117.515 57.9494V57.9718C118.673 58.1285 119.809 58.2852 120.945 58.4643V46.5207C120.511 46.3976 120.088 46.2857 119.664 46.1737V9.23474Z" fill="white"/>
<path d="M129.62 8.38403C128.373 8.50716 127.114 8.6191 125.845 8.73104V59.2367C126.279 59.315 126.702 59.3934 127.125 59.4829V59.5053C128.395 59.7404 129.653 59.9867 130.9 60.2329V49.6214C130.477 49.4758 130.043 49.3415 129.62 49.196V8.38403Z" fill="white"/>
<path d="M139.586 7.28705C138.217 7.45495 136.825 7.61166 135.433 7.76837V61.1732C135.867 61.2739 136.29 61.3746 136.713 61.4754V61.4978C138.116 61.8224 139.497 62.1582 140.867 62.5164V53.2929C140.444 53.125 140.009 52.9682 139.586 52.8003V7.28705Z" fill="white"/>
<path d="M149.586 5.93262C148.083 6.15649 146.557 6.36917 145.021 6.58185V63.6022C145.455 63.7253 145.878 63.8485 146.301 63.9716C147.849 64.4305 149.375 64.8783 150.867 65.3484V57.6136C150.444 57.4121 150.009 57.2218 149.586 57.0315V5.93262Z" fill="white"/>
<path d="M159.597 4.30954C157.949 4.60057 156.268 4.88041 154.575 5.14906V66.5013C155.232 66.714 155.878 66.9379 156.524 67.1618C156.78 67.2513 157.036 67.3409 157.292 67.4304C158.517 67.8558 159.72 68.2811 160.9 68.7065V62.4604C160.477 62.2366 160.043 62.0127 159.619 61.7888V4.30954H159.597Z" fill="white"/>
<path d="M169.63 2.44022C167.815 2.79841 165.978 3.15661 164.107 3.50361V69.9266C166.49 70.8445 168.751 71.7736 170.922 72.6914V68.3147C170.499 68.0573 170.065 67.7886 169.642 67.5088V2.44022H169.63Z" fill="white"/>
<path d="M180.955 0L179.686 0.291034C177.704 0.738779 175.677 1.18652 173.606 1.62308V73.8667C176.256 75.0421 178.728 76.2062 181 77.3144V74.9301L180.955 0Z" fill="white"/>
</g>
<defs>
<clipPath id="clip0_9_103">
<rect width="181" height="104" fill="white"/>
</clipPath>
</defs>
</svg>
