<svg width="325" height="265" viewBox="0 0 325 265" fill="none" xmlns="http://www.w3.org/2000/svg">
<g clip-path="url(#clip0_858_202)">
<path d="M2.29858 132.042H317.264" stroke="#BE975B" stroke-width="2" stroke-miterlimit="10"/>
<path d="M245.197 123.201L317.911 113.362H6.39404L77.3846 123.627L245.197 123.201Z" stroke="#BE975B" stroke-width="2" stroke-miterlimit="10"/>
<path d="M245.516 105.236L318.231 84.1709H6.71326L77.7038 105.663L245.516 105.236Z" stroke="#BE975B" stroke-width="2" stroke-miterlimit="10"/>
<path d="M245.553 83.8263L318.231 48.4966H6.71326L77.7038 84.1165L245.553 83.8263Z" stroke="#BE975B" stroke-width="2" stroke-miterlimit="10"/>
<path d="M245.553 48.2791L318.231 0.906738H6.71326L77.7038 48.5693L245.553 48.2791Z" stroke="#BE975B" stroke-width="2" stroke-miterlimit="10"/>
<path d="M79.4277 141.591L6.71326 151.43H318.231L247.24 141.165L79.4277 141.591Z" stroke="#BE975B" stroke-width="2" stroke-miterlimit="10"/>
<path d="M79.1085 159.555L6.39404 180.621H317.911L246.912 159.129L79.1085 159.555Z" stroke="#BE975B" stroke-width="2" stroke-miterlimit="10"/>
<path d="M79.072 180.965L6.39404 216.294H317.911L246.912 180.684L79.072 180.965Z" stroke="#BE975B" stroke-width="2" stroke-miterlimit="10"/>
<path d="M79.072 216.512L6.39404 263.885H317.911L246.912 216.222L79.072 216.512Z" stroke="#BE975B" stroke-width="2" stroke-miterlimit="10"/>
</g>
<defs>
<clipPath id="clip0_858_202">
<rect width="324.625" height="264.792" fill="white"/>
</clipPath>
</defs>
</svg>
