<svg width="308" height="299" viewBox="0 0 308 299" fill="none" xmlns="http://www.w3.org/2000/svg">
<g clip-path="url(#clip0_858_247)">
<path d="M182.544 180.837C117.452 240.32 41.2809 262.646 12.2409 230.757C-16.799 198.869 12.3712 124.936 77.4632 65.4535C142.555 5.98061 218.726 -16.3556 247.766 15.5332C276.806 47.422 247.636 121.354 182.544 180.837Z" stroke="#BE975B" stroke-width="2" stroke-miterlimit="10"/>
<path d="M158.232 154.146C114.657 193.962 65.222 210.619 47.7019 191.373C30.1817 172.137 51.258 124.344 94.833 84.5286C138.408 44.7128 187.843 28.0559 205.363 47.3016C222.883 66.5372 201.807 114.33 158.232 154.146Z" stroke="#BE975B" stroke-width="2" stroke-miterlimit="10"/>
<path d="M12.241 230.768L60.2436 283.467C89.2835 315.356 165.455 293.03 230.547 233.547C295.639 174.064 324.809 100.132 295.769 68.2432L247.766 15.5435" stroke="#BE975B" stroke-width="2" stroke-miterlimit="10"/>
<path d="M99.1105 192.547L77.6636 241.745L125.666 294.444" stroke="#BE975B" stroke-width="2" stroke-miterlimit="10"/>
<path d="M300.687 134.509L252.685 81.8091L202.038 98.6064" stroke="#BE975B" stroke-width="2" stroke-miterlimit="10"/>
<path d="M230.547 233.547L158.232 154.146" stroke="#BE975B" stroke-width="2" stroke-miterlimit="10"/>
<path d="M177.996 272.419L130.014 219.74L130.054 176.241" stroke="#BE975B" stroke-width="2" stroke-miterlimit="10"/>
<path d="M69.259 199.38L34.3088 243.26L82.4617 296.13" stroke="#BE975B" stroke-width="2" stroke-miterlimit="10"/>
<path d="M7.35254 224.095L47.702 191.383" stroke="#BE975B" stroke-width="2" stroke-miterlimit="10"/>
<path d="M1.70288 187.54L41.9121 167.341" stroke="#BE975B" stroke-width="2" stroke-miterlimit="10"/>
<path d="M18.2612 139.707L54.0128 134.429" stroke="#BE975B" stroke-width="2" stroke-miterlimit="10"/>
<path d="M54.123 89.0942L79.086 100.302" stroke="#BE975B" stroke-width="2" stroke-miterlimit="10"/>
<path d="M102.556 44.833L111.943 70.2698" stroke="#BE975B" stroke-width="2" stroke-miterlimit="10"/>
<path d="M156.699 13.2051L148.165 48.3851" stroke="#BE975B" stroke-width="2" stroke-miterlimit="10"/>
<path d="M205.764 1.06396L182.003 39.3345" stroke="#BE975B" stroke-width="2" stroke-miterlimit="10"/>
<path d="M241.586 10.0547L205.363 47.3018" stroke="#BE975B" stroke-width="2" stroke-miterlimit="10"/>
<path d="M306.317 91.5626L258.224 38.7524L211.344 69.5375" stroke="#BE975B" stroke-width="2" stroke-miterlimit="10"/>
<path d="M274.031 184.65L226.069 131.981L182.484 128.037" stroke="#BE975B" stroke-width="2" stroke-miterlimit="10"/>
</g>
<defs>
<clipPath id="clip0_858_247">
<rect width="308" height="299" fill="white"/>
</clipPath>
</defs>
</svg>
