<svg width="424" height="374" viewBox="0 0 424 374" fill="none" xmlns="http://www.w3.org/2000/svg">
<g clip-path="url(#clip0_858_221)">
<path d="M211.947 43.0481L297.041 92.2113L420.35 163.451L305.299 229.921L211.956 283.855L106.873 223.139L3.54411 163.451L115.281 98.8964L211.947 43.0481ZM211.947 41C141.295 81.8201 70.6519 122.631 0 163.451C70.6519 204.271 141.295 245.083 211.947 285.903C282.599 245.083 353.242 204.271 423.894 163.451C353.242 122.631 282.59 81.8201 211.947 41Z" fill="#BE975B"/>
<path d="M0.930176 162.981V210.699C36.327 230.941 71.6973 251.253 107.032 271.619C141.915 291.728 176.754 311.881 211.557 332.096C282.076 291.169 352.595 250.243 423.114 209.307V163.434" stroke="#BE975B" stroke-width="1.28949" stroke-linejoin="round"/>
<path d="M108.919 101.751C143.935 121.984 176.807 141.481 211.823 161.713C246.839 141.481 280.649 121.753 315.665 101.521" stroke="#BE975B" stroke-width="1.28949" stroke-linejoin="round"/>
<path d="M211.867 43.7307L244.207 62.4118L274.775 80.0733L244.207 97.7348L211.867 116.416L179.527 97.7348L148.959 80.0733L179.527 62.4118L211.867 43.7307ZM211.867 41.6826C189.716 54.4766 167.566 67.2794 145.415 80.0733C167.566 92.8673 189.716 105.67 211.867 118.464C234.018 105.67 256.168 92.8673 278.319 80.0733C256.168 67.2794 234.018 54.4766 211.867 41.6826Z" fill="#BE975B"/>
<path d="M211.867 43.5623L230.677 54.4234L245.075 62.7399L230.677 71.0564L211.867 81.9175L180.351 63.7063L178.667 62.731L180.351 61.7557L211.867 43.5623ZM211.867 41.5142C199.622 48.5894 187.368 55.6646 175.123 62.7399C187.368 69.8151 199.622 76.8904 211.867 83.9656C224.112 76.8904 236.366 69.8151 248.61 62.7399C236.366 55.6646 224.112 48.5894 211.867 41.5142Z" fill="#BE975B"/>
<path d="M211.867 43.2786L281.101 83.2741L348.563 122.25L274.27 165.171L211.876 201.221L153.584 167.547L75.1794 122.25L142.642 83.2741L211.867 43.2786ZM211.867 41.2305C165.12 68.237 118.373 95.2435 71.6353 122.25C118.382 149.256 165.129 176.263 211.867 203.269C258.614 176.263 305.361 149.256 352.099 122.25C305.361 95.2435 258.614 68.237 211.867 41.2305Z" fill="#BE975B"/>
<path d="M72.5656 122.25V205.078" stroke="#BE975B" stroke-width="1.28949" stroke-linejoin="round"/>
<path d="M350.814 122.25V204.458" stroke="#BE975B" stroke-width="1.28949" stroke-linejoin="round"/>
<path d="M211.867 331.652V82.6445" stroke="#BE975B" stroke-width="1.28949" stroke-linejoin="round"/>
<path d="M146.487 163.257V80.0825" stroke="#BE975B" stroke-width="1.28949" stroke-linejoin="round"/>
<path d="M276.644 164.302V80.4277" stroke="#BE975B" stroke-width="1.28949" stroke-linejoin="round"/>
<path d="M247.069 62.7935V96.7422" stroke="#BE975B" stroke-width="1.28949" stroke-linejoin="round"/>
<path d="M175.504 62.7935V96.7422" stroke="#BE975B" stroke-width="1.28949" stroke-linejoin="round"/>
<path d="M211.867 43.5623L230.677 54.4234L245.075 62.7399L230.677 71.0564L211.867 81.9175L180.351 63.7063L178.667 62.731L180.351 61.7557L211.867 43.5623ZM211.867 41.5142C199.622 48.5894 187.368 55.6646 175.123 62.7399C187.368 69.8151 199.622 76.8904 211.867 83.9656C224.112 76.8904 236.366 69.8151 248.61 62.7399C236.366 55.6646 224.112 48.5894 211.867 41.5142Z" fill="#BE975B"/>
</g>
<defs>
<clipPath id="clip0_858_221">
<rect width="424" height="292" fill="white" transform="translate(0 41)"/>
</clipPath>
</defs>
</svg>
