<svg width="13" height="7" viewBox="0 0 13 7" fill="none" xmlns="http://www.w3.org/2000/svg">
<g clip-path="url(#clip0_858_302)">
<path d="M0 3.60217H11.3775" stroke="#0C0D0D" stroke-miterlimit="10"/>
<path d="M8.65008 0.344065C9.09801 0.999979 9.63553 1.63439 10.2129 2.23654V4.73116C9.58576 5.33331 9.02833 5.97847 8.55054 6.66665L9.45636 7.01073C9.97397 6.25804 10.5911 5.55912 11.2979 4.9032C11.7159 4.52686 12.1639 4.16127 12.6417 3.81718L13 3.55912L12.6516 3.2903C12.1738 2.91396 11.7259 2.51611 11.3078 2.10751C10.6409 1.45159 10.0536 0.752667 9.5559 0.0214844L8.65008 0.36557V0.344065ZM11.4472 3.63439L11.5567 3.4946C11.5567 3.4946 11.5766 3.51611 11.5865 3.51611C11.5368 3.54837 11.4969 3.59138 11.4472 3.63439Z" fill="#0C0D0D"/>
</g>
<defs>
<clipPath id="clip0_858_302">
<rect width="13" height="7" fill="white"/>
</clipPath>
</defs>
</svg>
