<svg width="20" height="15" viewBox="0 0 20 15" fill="none" xmlns="http://www.w3.org/2000/svg">
<g clip-path="url(#clip0_188_1571)">
<path d="M16.9396 1.25343C15.6277 0.659341 14.239 0.236951 12.8154 0C12.6339 0.3125 12.4316 0.728022 12.2885 1.06799C10.7742 0.84478 9.23198 0.84478 7.71419 1.06799C7.55369 0.703984 7.37225 0.346841 7.17337 0C5.74629 0.236951 4.35759 0.662775 3.04217 1.2603C0.439242 5.07898 -0.269063 8.81181 0.0833447 12.4828C1.61161 13.6023 3.3248 14.4506 5.14615 14.9966C5.55438 14.4506 5.91726 13.8702 6.23129 13.2658C5.63812 13.0495 5.06939 12.7782 4.52508 12.4622C4.66813 12.3558 4.80421 12.2493 4.9368 12.1429C8.14336 13.6332 11.8558 13.6332 15.0624 12.1429C15.1985 12.2527 15.3381 12.3592 15.4811 12.4622C14.9368 12.7816 14.3646 13.0495 13.7714 13.2692C14.0819 13.8736 14.4448 14.4506 14.8565 14.9966C16.6779 14.454 18.3911 13.6023 19.9194 12.4828C20.3311 8.22459 19.2076 4.52953 16.9431 1.25343H16.9396ZM6.6779 10.2266C5.69046 10.2266 4.88097 9.33723 4.88097 8.24519C4.88097 7.15316 5.67302 6.25687 6.6779 6.25687C7.68279 6.25687 8.4853 7.14629 8.47832 8.24176C8.46785 9.33723 7.68628 10.2301 6.6779 10.2301V10.2266ZM13.3213 10.2266C12.3339 10.2266 11.5244 9.33723 11.5244 8.24519C11.5244 7.15316 12.3164 6.25687 13.3213 6.25687C14.3262 6.25687 15.1287 7.14629 15.1182 8.24176C15.1078 9.33723 14.3262 10.2301 13.3213 10.2301V10.2266Z" fill="white"/>
</g>
<defs>
<clipPath id="clip0_188_1571">
<rect width="20" height="15" fill="white"/>
</clipPath>
</defs>
</svg>
