<svg width="32" height="32" viewBox="0 0 32 32" fill="none" xmlns="http://www.w3.org/2000/svg">
<path d="M17 2C8.716 2 2 8.716 2 17C2 25.284 8.716 32 17 32C25.284 32 32 25.284 32 17C32 8.716 25.284 2 17 2ZM27.938 10H24.958C24.378 8.176 23.582 6.578 22.622 5.296C24.7936 6.34414 26.6334 7.97206 27.938 10ZM18 10V4.164C19.89 4.722 21.732 6.818 22.866 10H18ZM23.448 12C23.73 13.224 23.912 14.564 23.97 16H18V12H23.448ZM16 4.164V10H11.134C12.268 6.818 14.11 4.722 16 4.164ZM16 12V16H10.03C10.088 14.564 10.27 13.224 10.552 12H16ZM8.03 16H4.05C4.158 14.594 4.48 13.246 5.002 12H8.522C8.24596 13.3172 8.08137 14.6552 8.03 16ZM8.03 18C8.08137 19.3448 8.24596 20.6828 8.522 22H5.002C4.47277 20.7262 4.15135 19.3757 4.05 18H8.03ZM10.03 18H16V22H10.552C10.2545 20.6857 10.0798 19.3466 10.03 18ZM16 24V29.836C14.11 29.278 12.268 27.182 11.134 24H16ZM18 29.836V24H22.866C21.732 27.182 19.89 29.278 18 29.836ZM18 22V18H23.97C23.9202 19.3466 23.7455 20.6857 23.448 22H18ZM25.97 18H29.95C29.8487 19.3757 29.5272 20.7262 28.998 22H25.478C25.754 20.6828 25.9186 19.3448 25.97 18ZM25.97 16C25.9186 14.6552 25.754 13.3172 25.478 12H28.998C29.52 13.246 29.842 14.594 29.95 16H25.97ZM11.378 5.296C10.42 6.578 9.622 8.176 9.042 10H6.062C7.36664 7.97206 9.20636 6.34414 11.378 5.296ZM6.062 24H9.042C9.622 25.824 10.418 27.422 11.378 28.704C9.20636 27.6559 7.36664 26.0279 6.062 24ZM22.622 28.704C23.58 27.422 24.378 25.824 24.958 24H27.938C26.6334 26.0279 24.7936 27.6559 22.622 28.704Z" fill="#3A5A8C"/>
</svg>
