<svg width="20" height="20" viewBox="0 0 20 20" fill="none" xmlns="http://www.w3.org/2000/svg">
<path fill-rule="evenodd" clip-rule="evenodd" d="M19.375 14.375C19.375 14.5408 19.3092 14.6997 19.1919 14.8169C19.0747 14.9342 18.9158 15 18.75 15C18.5842 15 18.4253 14.9342 18.3081 14.8169C18.1908 14.6997 18.125 14.5408 18.125 14.375V5.625C18.125 5.45924 18.1908 5.30027 18.3081 5.18306C18.4253 5.06585 18.5842 5 18.75 5C18.9158 5 19.0747 5.06585 19.1919 5.18306C19.3092 5.30027 19.375 5.45924 19.375 5.625V14.375Z" fill="white"/>
<path d="M5.625 5C4.6361 5 3.6694 5.29324 2.84715 5.84265C2.02491 6.39206 1.38404 7.17295 1.0056 8.08658C0.627166 9.00021 0.52815 10.0055 0.721076 10.9755C0.914002 11.9454 1.39021 12.8363 2.08947 13.5355C2.78873 14.2348 3.67965 14.711 4.64955 14.9039C5.61946 15.0969 6.62479 14.9978 7.53842 14.6194C8.45205 14.241 9.23294 13.6001 9.78235 12.7779C10.3318 11.9556 10.625 10.9889 10.625 10C10.6236 8.67436 10.0963 7.40343 9.15894 6.46607C8.22157 5.5287 6.95064 5.00145 5.625 5Z" fill="white"/>
<path fill-rule="evenodd" clip-rule="evenodd" d="M12.475 6.66016C13.0938 5.21563 13.9313 5 14.375 5C14.8188 5 15.6563 5.21563 16.275 6.66016C16.6617 7.5625 16.875 8.75 16.875 10C16.875 11.25 16.6617 12.4375 16.275 13.3398C15.6563 14.7844 14.8188 15 14.375 15C13.9313 15 13.0938 14.7844 12.475 13.3398C12.0883 12.4375 11.875 11.25 11.875 10C11.875 8.75 12.0883 7.5625 12.475 6.66016Z" fill="white"/>
</svg>
