<svg width="20" height="16" viewBox="0 0 20 16" fill="none" xmlns="http://www.w3.org/2000/svg">
<g clip-path="url(#clip0_188_1574)">
<path d="M1.22768 6.96926C1.22768 6.96926 10.0746 3.45642 13.1404 2.22015C14.3169 1.72639 18.306 0.14335 18.306 0.14335C18.306 0.14335 20.1486 -0.550171 19.9928 1.13463C19.9421 1.82816 19.5331 4.25171 19.1241 6.87503C18.5086 10.5839 17.8463 14.6432 17.8463 14.6432C17.8463 14.6432 17.745 15.7815 16.8763 15.9775C16.0076 16.1773 14.574 15.284 14.3208 15.088C14.1143 14.941 10.4875 12.7134 9.15522 11.6242C8.79683 11.3264 8.38779 10.7346 9.20587 10.0411C11.0485 8.40907 13.2456 6.38128 14.574 5.09223C15.1895 4.49671 15.8011 3.11343 13.2456 4.79447C9.6149 7.21803 6.03485 9.49459 6.03485 9.49459C6.03485 9.49459 5.21677 9.98834 3.68191 9.54359C2.14704 9.09883 0.358963 8.5033 0.358963 8.5033C0.358963 8.5033 -0.868151 7.76078 1.22768 6.96926Z" fill="white"/>
</g>
<defs>
<clipPath id="clip0_188_1574">
<rect width="20" height="16" fill="white"/>
</clipPath>
</defs>
</svg>
