<svg width="32" height="32" viewBox="0 0 32 32" fill="none" xmlns="http://www.w3.org/2000/svg">
<path d="M5.33301 28.0001C5.33301 28.7363 5.92941 29.3334 6.66634 29.3334H23.9997C26.2054 29.3334 27.9997 27.5391 27.9997 25.3334C27.9997 23.1277 26.2054 21.3334 23.9997 21.3334H13.333C12.5973 21.3334 11.9997 20.7351 11.9997 20.0001C11.9997 19.265 12.5973 18.6667 13.333 18.6667H21.333C22.0699 18.6667 22.6663 18.0697 22.6663 17.3334C22.6663 16.5971 22.0699 16.0001 21.333 16.0001H17.333V13.1441C19.627 12.5478 21.333 10.4778 21.333 8.00008C21.333 5.05928 18.9411 2.66675 15.9997 2.66675C13.0582 2.66675 10.6663 5.05928 10.6663 8.00008C10.6663 10.4778 12.3723 12.5478 14.6663 13.1441V16.0001H13.333C11.1273 16.0001 9.33301 17.7943 9.33301 20.0001C9.33301 22.2058 11.1273 24.0001 13.333 24.0001H23.9997C24.7354 24.0001 25.333 24.5983 25.333 25.3334C25.333 26.0685 24.7354 26.6667 23.9997 26.6667H6.66634C5.92941 26.6667 5.33301 27.2638 5.33301 28.0001ZM13.333 8.00008C13.333 6.52941 14.5297 5.33341 15.9997 5.33341C17.4697 5.33341 18.6663 6.52941 18.6663 8.00008C18.6663 9.47075 17.4697 10.6667 15.9997 10.6667C14.5297 10.6667 13.333 9.47075 13.333 8.00008Z" fill="#3A5A8C"/>
</svg>
