<svg width="115" height="30" viewBox="0 0 115 30" fill="none" xmlns="http://www.w3.org/2000/svg">
<g clip-path="url(#clip0_160_2636)">
<rect width="115" height="30" rx="15" fill="#243C5F" fill-opacity="0.2"/>
<g filter="url(#filter1_d_160_2636)">
<path d="M13.2 20V8.8H20.128V9.904H14.544V13.808H19.648V14.896H14.544V18.896H20.128V20H13.2ZM27.1109 20.192C26.0229 20.192 25.0789 19.952 24.2789 19.472C23.4895 18.9813 22.8815 18.304 22.4549 17.44C22.0282 16.5653 21.8149 15.552 21.8149 14.4C21.8149 13.248 22.0282 12.24 22.4549 11.376C22.8815 10.5013 23.4895 9.824 24.2789 9.344C25.0789 8.85333 26.0229 8.608 27.1109 8.608C28.3909 8.608 29.4309 8.912 30.2309 9.52C31.0309 10.128 31.5429 10.9867 31.7669 12.096H30.2789C30.1082 11.4027 29.7615 10.848 29.2389 10.432C28.7162 10.0053 28.0069 9.792 27.1109 9.792C26.3109 9.792 25.6175 9.97867 25.0309 10.352C24.4442 10.7147 23.9909 11.2427 23.6709 11.936C23.3509 12.6187 23.1909 13.44 23.1909 14.4C23.1909 15.36 23.3509 16.1867 23.6709 16.88C23.9909 17.5627 24.4442 18.0907 25.0309 18.464C25.6175 18.8267 26.3109 19.008 27.1109 19.008C28.0069 19.008 28.7162 18.8053 29.2389 18.4C29.7615 17.984 30.1082 17.4347 30.2789 16.752H31.7669C31.5429 17.8293 31.0309 18.672 30.2309 19.28C29.4309 19.888 28.3909 20.192 27.1109 20.192ZM38.7076 20.192C37.6303 20.192 36.681 19.952 35.8596 19.472C35.049 18.9813 34.4143 18.304 33.9556 17.44C33.5076 16.5653 33.2836 15.552 33.2836 14.4C33.2836 13.2587 33.5076 12.256 33.9556 11.392C34.4143 10.5173 35.049 9.83467 35.8596 9.344C36.681 8.85333 37.6303 8.608 38.7076 8.608C39.8063 8.608 40.761 8.85333 41.5716 9.344C42.3823 9.83467 43.0116 10.5173 43.4596 11.392C43.9183 12.256 44.1476 13.2587 44.1476 14.4C44.1476 15.552 43.9183 16.5653 43.4596 17.44C43.0116 18.304 42.3823 18.9813 41.5716 19.472C40.761 19.952 39.8063 20.192 38.7076 20.192ZM38.7076 19.008C39.5183 19.008 40.2276 18.8267 40.8356 18.464C41.4543 18.0907 41.929 17.5627 42.2596 16.88C42.601 16.1867 42.7716 15.36 42.7716 14.4C42.7716 13.44 42.601 12.6187 42.2596 11.936C41.929 11.2427 41.4543 10.7147 40.8356 10.352C40.2276 9.98933 39.5183 9.808 38.7076 9.808C37.9076 9.808 37.1983 9.98933 36.5796 10.352C35.9716 10.7147 35.497 11.2427 35.1556 11.936C34.825 12.6187 34.6596 13.44 34.6596 14.4C34.6596 15.36 34.825 16.1867 35.1556 16.88C35.497 17.5627 35.9716 18.0907 36.5796 18.464C37.1983 18.8267 37.9076 19.008 38.7076 19.008ZM49.6743 20.192C48.8529 20.192 48.1383 20.0427 47.5303 19.744C46.9223 19.4453 46.4529 19.0293 46.1223 18.496C45.7916 17.9627 45.6263 17.344 45.6263 16.64H47.0343C47.0343 17.0773 47.1356 17.4827 47.3383 17.856C47.5409 18.2187 47.8343 18.512 48.2183 18.736C48.6129 18.9493 49.0983 19.056 49.6743 19.056C50.1756 19.056 50.6023 18.976 50.9543 18.816C51.3169 18.6453 51.5889 18.416 51.7703 18.128C51.9623 17.84 52.0583 17.5147 52.0583 17.152C52.0583 16.7147 51.9623 16.3627 51.7703 16.096C51.5889 15.8187 51.3383 15.5947 51.0183 15.424C50.6983 15.2533 50.3249 15.104 49.8983 14.976C49.4823 14.8373 49.0449 14.6933 48.5863 14.544C47.7009 14.2453 47.0503 13.872 46.6343 13.424C46.2183 12.976 46.0103 12.3947 46.0103 11.68C46.0103 11.072 46.1489 10.5387 46.4263 10.08C46.7143 9.62133 47.1196 9.264 47.6423 9.008C48.1756 8.74133 48.8049 8.608 49.5303 8.608C50.2449 8.608 50.8636 8.74133 51.3863 9.008C51.9196 9.27467 52.3356 9.64267 52.6343 10.112C52.9329 10.5707 53.0823 11.104 53.0823 11.712H51.6743C51.6743 11.4027 51.5943 11.0987 51.4343 10.8C51.2743 10.5013 51.0289 10.256 50.6983 10.064C50.3783 9.86133 49.9729 9.76 49.4823 9.76C49.0769 9.74933 48.7143 9.81867 48.3943 9.968C48.0849 10.1067 47.8396 10.3093 47.6583 10.576C47.4876 10.8427 47.4023 11.168 47.4023 11.552C47.4023 11.9147 47.4769 12.208 47.6263 12.432C47.7863 12.656 48.0103 12.848 48.2983 13.008C48.5969 13.1573 48.9436 13.296 49.3383 13.424C49.7329 13.552 50.1703 13.696 50.6503 13.856C51.1943 14.0373 51.6743 14.2613 52.0903 14.528C52.5169 14.784 52.8476 15.1147 53.0823 15.52C53.3276 15.9253 53.4503 16.4427 53.4503 17.072C53.4503 17.6053 53.3063 18.112 53.0183 18.592C52.7409 19.0613 52.3249 19.4453 51.7703 19.744C51.2156 20.0427 50.5169 20.192 49.6743 20.192ZM57.6711 20V15.744L54.0231 8.8H55.5431L58.5511 14.864H58.1511L61.1431 8.8H62.6471L59.0151 15.744V20H57.6711ZM67.1118 20.192C66.2904 20.192 65.5758 20.0427 64.9678 19.744C64.3598 19.4453 63.8904 19.0293 63.5598 18.496C63.2291 17.9627 63.0638 17.344 63.0638 16.64H64.4718C64.4718 17.0773 64.5731 17.4827 64.7758 17.856C64.9784 18.2187 65.2718 18.512 65.6558 18.736C66.0504 18.9493 66.5358 19.056 67.1118 19.056C67.6131 19.056 68.0398 18.976 68.3918 18.816C68.7544 18.6453 69.0264 18.416 69.2078 18.128C69.3998 17.84 69.4958 17.5147 69.4958 17.152C69.4958 16.7147 69.3998 16.3627 69.2078 16.096C69.0264 15.8187 68.7758 15.5947 68.4558 15.424C68.1358 15.2533 67.7624 15.104 67.3358 14.976C66.9198 14.8373 66.4824 14.6933 66.0238 14.544C65.1384 14.2453 64.4878 13.872 64.0718 13.424C63.6558 12.976 63.4478 12.3947 63.4478 11.68C63.4478 11.072 63.5864 10.5387 63.8638 10.08C64.1518 9.62133 64.5571 9.264 65.0798 9.008C65.6131 8.74133 66.2424 8.608 66.9678 8.608C67.6824 8.608 68.3011 8.74133 68.8238 9.008C69.3571 9.27467 69.7731 9.64267 70.0718 10.112C70.3704 10.5707 70.5198 11.104 70.5198 11.712H69.1118C69.1118 11.4027 69.0318 11.0987 68.8718 10.8C68.7118 10.5013 68.4664 10.256 68.1358 10.064C67.8158 9.86133 67.4104 9.76 66.9198 9.76C66.5144 9.74933 66.1518 9.81867 65.8318 9.968C65.5224 10.1067 65.2771 10.3093 65.0958 10.576C64.9251 10.8427 64.8398 11.168 64.8398 11.552C64.8398 11.9147 64.9144 12.208 65.0638 12.432C65.2238 12.656 65.4478 12.848 65.7358 13.008C66.0344 13.1573 66.3811 13.296 66.7758 13.424C67.1704 13.552 67.6078 13.696 68.0878 13.856C68.6318 14.0373 69.1118 14.2613 69.5278 14.528C69.9544 14.784 70.2851 15.1147 70.5198 15.52C70.7651 15.9253 70.8878 16.4427 70.8878 17.072C70.8878 17.6053 70.7438 18.112 70.4558 18.592C70.1784 19.0613 69.7624 19.4453 69.2078 19.744C68.6531 20.0427 67.9544 20.192 67.1118 20.192ZM75.1834 20V9.904H71.8394V8.8H79.8714V9.904H76.5274V20H75.1834ZM81.5281 20V8.8H88.4561V9.904H82.8721V13.808H87.9761V14.896H82.8721V18.896H88.4561V20H81.5281ZM90.575 20V8.8H92.143L96.095 16.624L100.063 8.8H101.647V20H100.303V11.2L96.607 18.432H95.599L91.919 11.232V20H90.575Z" fill="white"/>
</g>
</g>
<defs>
<filter id="filter1_d_160_2636" x="3.2002" y="-1.3916" width="108.447" height="31.584" filterUnits="userSpaceOnUse" color-interpolation-filters="sRGB">
<feFlood flood-opacity="0" result="BackgroundImageFix"/>
<feColorMatrix in="SourceAlpha" type="matrix" values="0 0 0 0 0 0 0 0 0 0 0 0 0 0 0 0 0 0 127 0" result="hardAlpha"/>
<feOffset/>
<feGaussianBlur stdDeviation="5"/>
<feComposite in2="hardAlpha" operator="out"/>
<feColorMatrix type="matrix" values="0 0 0 0 0.096229 0 0 0 0 0.44892 0 0 0 0 1 0 0 0 1 0"/>
<feBlend mode="normal" in2="BackgroundImageFix" result="effect1_dropShadow_160_2636"/>
<feBlend mode="normal" in="SourceGraphic" in2="effect1_dropShadow_160_2636" result="shape"/>
</filter>
<clipPath id="clip0_160_2636">
<rect width="115" height="30" rx="15" fill="white"/>
</clipPath>
</defs>
</svg>
